HIERARCHY
ROOT Hips
{
	OFFSET 0.000000 0.000000 0.000000 
	CHANNELS 6 Xposition Yposition Zposition Yrotation Zrotation Xrotation 
	JOINT Lumbar
	{
		OFFSET 0.000000 0.000000 0.000000 
		CHANNELS 3 Zrotation Xrotation Yrotation
		JOINT Neck
		{
			OFFSET 0.000000 0.445665 0.000000 
			CHANNELS 3 Zrotation Xrotation Yrotation
			End Site
			{
				OFFSET 0.000000 0.227535 0.000000 
			}
		}
		JOINT RightShoulder
		{
			OFFSET 0.019635 0.377685 0.194865 
			CHANNELS 3 Zrotation Xrotation Yrotation
			JOINT RightElbow
			{
				OFFSET 0.000000 -0.243375 0.000000 
				CHANNELS 2 Zrotation Yrotation
				JOINT RightWrist
				{
					OFFSET 0.000000 -0.264825 0.000000 
					CHANNELS 2 Zrotation Xrotation
					End Site
					{
						OFFSET 0.006600 -0.176220 0.000990 
					}
				}
			}
		}
		JOINT LeftShoulder
		{
			OFFSET 0.019635 0.377685 -0.194865 
			CHANNELS 3 Zrotation Xrotation Yrotation
			JOINT LeftElbow
			{
				OFFSET 0.000000 -0.243375 0.000000 
				CHANNELS 2 Zrotation Yrotation
				JOINT LeftWrist
				{
					OFFSET 0.000000 -0.264825 0.000000 
					CHANNELS 2 Zrotation Xrotation
					End Site
					{
						OFFSET 0.006600 -0.176220 -0.000990 
					}
				}
			}
		}
	}
	JOINT RightHip
	{
		OFFSET 0.052140 -0.069960 0.075570 
		CHANNELS 3 Zrotation Xrotation Yrotation
		JOINT RightKnee
		{
			OFFSET 0.000000 -0.402270 0.000000 
			CHANNELS 1 Zrotation
			JOINT RightAnkle
			{
				OFFSET 0.000000 -0.404085 0.000000 
				CHANNELS 3 Zrotation Xrotation Yrotation
				End Site
				{
					OFFSET 0.204105 -0.089430 0.008415 
				}
			}
		}
	}
	JOINT LeftHip
	{
		OFFSET 0.052140 -0.069960 -0.075570 
		CHANNELS 3 Zrotation Xrotation Yrotation
		JOINT LeftKnee
		{
			OFFSET 0.000000 -0.402270 0.000000 
			CHANNELS 1 Zrotation
			JOINT LeftAnkle
			{
				OFFSET 0.000000 -0.404085 0.000000 
				CHANNELS 3 Zrotation Xrotation Yrotation
				End Site
				{
					OFFSET 0.204105 -0.089430 -0.008415 
				}
			}
		}
	}
}
MOTION
Frames: 25
Frame Time: 0.02
-0.33199 -0.33098 0.201 27.53144 -20.70078 -4.46361 36.66341 2.41325 -3.87698 7.17892 -8.93173 -0.83065 43.11047 -2.26096 13.72553 128.43712 98.76601 9.31192 1.64139 44.07074 1.25257 -7.00359 133.66593 -97.56506 6.79635 -2.15615 108.16724 -9.39349 -8.67612 -101.0977 -10.49955 -1.73985 -1.66196 110.02889 6.28477 3.5185 -101.71514 -12.58329 2.16633 1.98956
-0.33202 -0.33132 0.20124 27.53413 -20.55858 -4.49826 36.68236 2.36243 -3.78452 7.19019 -8.81432 -0.83065 42.79651 -1.89025 13.78101 128.50999 100.00098 9.561 1.82696 43.94009 1.22643 -7.07848 133.69243 -97.66539 6.84324 -2.13887 107.98535 -9.34848 -8.78826 -101.09175 -10.49568 -1.74225 -1.66324 109.93037 6.28609 3.45185 -101.74498 -12.58539 2.16469 1.98836
-0.33191 -0.33157 0.20156 27.51201 -20.42126 -4.55165 36.74108 2.3001 -3.70243 7.11825 -8.59303 -0.83065 42.57738 -1.48049 13.85596 128.52831 101.88602 9.94053 2.10358 44.0418 1.43995 -7.17637 133.5925 -98.0836 6.98211 -2.21478 107.78993 -9.27206 -8.92174 -101.07326 -10.4982 -1.74073 -1.66242 109.83874 6.29957 3.34594 -101.77773 -12.58785 2.16276 1.9869
-0.33187 -0.33185 0.20184 27.49966 -20.2853 -4.5973 36.78595 2.24362 -3.61612 7.08593 -8.41453 -0.83065 42.32558 -1.10079 13.92055 128.56938 103.41032 10.24424 2.32411 44.05178 1.54792 -7.26143 133.54492 -98.36467 7.07349 -2.25143 107.60563 -9.21075 -9.04175 -101.05962 -10.49648 -1.74134 -1.66271 109.74769 6.30705 3.25726 -101.80805 -12.59044 2.16105 1.98565
-0.33179 -0.33216 0.20213 27.49351 -20.13377 -4.63978 36.81203 2.18349 -3.52707 7.0472 -8.25177 -0.83065 42.02041 -0.66975 13.99095 128.62162 105.1969 10.61813 2.60225 43.99516 1.64164 -7.35884 133.52156 -98.61268 7.18836 -2.27164 107.39947 -9.14573 -9.17834 -101.04954 -10.49976 -1.74084 -1.66252 109.64033 6.3171 3.17186 -101.84312 -12.5914 2.15915 1.98412
-0.33176 -0.33238 0.2024 27.46876 -20.0166 -4.69345 36.88784 2.12849 -3.44688 7.00095 -8.0321 -0.83065 41.84949 -0.33565 14.0523 128.63737 106.59282 10.87769 2.78382 44.13237 1.81978 -7.43557 133.41698 -99.00037 7.27715 -2.34753 107.23678 -9.08103 -9.28522 -101.02957 -10.49446 -1.74149 -1.6627 109.56977 6.32411 3.06956 -101.86943 -12.59598 2.1575 1.98305
-0.33191 -0.33234 0.20258 27.39704 -19.98564 -4.77116 37.08111 2.09229 -3.3834 6.96234 -7.68795 -0.83065 42.06339 -0.28485 14.10543 128.55675 106.80245 10.77769 2.67605 44.7871 2.19998 -7.44342 133.11598 -99.76652 7.26201 -2.57968 107.18698 -9.02517 -9.3048 -100.97925 -10.46306 -1.74765 -1.66529 109.58699 6.3245 2.93619 -101.865 -12.6106 2.15685 1.98347
-0.33212 -0.3322 0.20273 27.3078 -19.99024 -4.85985 37.32461 2.06148 -3.32955 6.91752 -7.28939 -0.83065 42.40385 -0.3318 14.14466 128.44253 106.59184 10.56049 2.46896 45.62306 2.65225 -7.43023 132.73799 -100.65204 7.21936 -2.86115 107.18304 -8.97066 -9.2937 -100.92047 -10.42304 -1.75485 -1.66818 109.64286 6.32072 2.78615 -101.85258 -12.62885 2.15636 1.98429
-0.33229 -0.33212 0.20289 27.22769 -19.98375 -4.94499 37.55223 2.02718 -3.27463 6.8701 -6.91135 -0.83065 42.66392 -0.33007 14.17708 128.34897 106.53934 10.40412 2.30791 46.35229 3.05363 -7.43048 132.39653 -101.43565 7.1952 -3.10372 107.16529 -8.9154 -9.2965 -100.86953 -10.38763 -1.76059 -1.67033 109.68938 6.3154 2.63966 -101.8476 -12.64547 2.15569 1.98485
-0.33251 -0.33198 0.20307 27.14171 -19.95696 -5.02478 37.75336 1.99688 -3.20582 6.84242 -6.5469 -0.83065 43.02418 -0.34508 14.26746 128.23052 106.63804 10.21897 2.14495 47.19308 3.53927 -7.41588 132.0432 -102.42427 7.1482 -3.4173 107.11858 -8.85974 -9.30004 -100.80139 -10.34954 -1.77022 -1.67484 109.70294 6.32407 2.50833 -101.82688 -12.66222 2.15565 1.98585
-0.33264 -0.33194 0.20319 27.06422 -19.97966 -5.11797 38.01925 1.95964 -3.16847 6.77354 -6.14319 -0.83065 43.20392 -0.34879 14.23117 128.15701 106.32608 10.06601 1.9627 47.84058 3.86421 -7.42607 131.69923 -103.01908 7.14201 -3.59569 107.14174 -8.80551 -9.29472 -100.76713 -10.31486 -1.77224 -1.67467 109.79239 6.30366 2.34255 -101.83677 -12.67932 2.1541 1.98589
-0.33253 -0.33217 0.20317 27.01381 -20.14064 -5.2463 38.46711 1.90239 -3.21228 6.59002 -5.64017 -0.83065 42.86097 -0.30008 13.86994 128.21257 104.87068 10.01374 1.73807 47.91805 3.72011 -7.51689 131.38942 -102.41749 7.24587 -3.36929 107.35974 -8.75612 -9.2702 -100.82912 -10.29218 -1.75123 -1.66041 110.09771 6.19324 2.08129 -101.93507 -12.6987 2.15036 1.98449
-0.33232 -0.33249 0.20309 26.97281 -20.34833 -5.38743 38.9752 1.83799 -3.28796 6.36615 -5.10109 -0.83065 42.3308 -0.2371 13.37831 128.31525 103.03236 9.99976 1.49925 47.7924 3.41242 -7.63193 131.09427 -101.42777 7.3926 -3.0082 107.64414 -8.7081 -9.23811 -100.92528 -10.27316 -1.72284 -1.64164 110.47512 6.05549 1.78713 -102.06396 -12.71795 2.14477 1.9819
-0.33214 -0.33278 0.20303 26.92807 -20.52778 -5.52212 39.44553 1.77653 -3.35126 6.16266 -4.5815 -0.83065 41.88076 -0.17813 12.93134 128.39893 101.44214 9.97949 1.27557 47.75295 3.18293 -7.7312 130.79998 -100.6677 7.5259 -2.72116 107.88957 -8.65874 -9.21089 -101.00563 -10.25209 -1.69903 -1.62569 110.80912 5.93741 1.51092 -102.17773 -12.7358 2.13859 1.97894
-0.332 -0.33304 0.20299 26.88047 -20.73782 -5.66006 39.96197 1.71633 -3.40618 5.95004 -4.04585 -0.83065 41.4539 -0.12989 12.54269 128.47177 99.53267 9.91101 1.01279 47.74453 2.93819 -7.84997 130.47126 -99.69119 7.6345 -2.38206 108.17355 -8.61219 -9.17671 -101.08749 -10.2322 -1.67018 -1.60652 111.18928 5.78918 1.22076 -102.2969 -12.75978 2.13819 1.97968
-0.33177 -0.33337 0.20291 26.84127 -20.89512 -5.79385 40.39544 1.65204 -3.48579 5.74721 -3.53706 -0.83065 40.93542 -0.05856 12.00535 128.57813 98.19289 9.95018 0.8281 47.62239 2.68742 -7.934 130.21865 -99.06664 7.8029 -2.11828 108.3926 -8.56041 -9.15544 -101.17368 -10.21102 -1.64996 -1.59294 111.49007 5.69658 0.95291 -102.41153 -12.77113 2.12563 1.97263
-0.33127 -0.33385 0.20273 26.82314 -20.89209 -5.9151 40.58953 1.57548 -3.62727 5.57928 -3.10126 -0.83065 40.18525 0.10806 11.05877 128.77173 98.60731 10.30736 0.8744 47.22139 2.44166 -7.91766 130.17403 -99.55193 8.14454 -2.0992 108.41404 -8.49126 -9.17328 -101.27005 -10.18376 -1.65627 -1.5964 111.55229 5.77089 0.7477 -102.51182 -12.74554 2.07727 1.94261
-0.33069 -0.33438 0.20252 26.81318 -20.83472 -6.03124 40.69684 1.49554 -3.79209 5.42299 -2.69601 -0.83065 39.35332 0.29204 9.97299 128.99646 99.59585 10.76707 0.99835 46.7147 2.19828 -7.86545 130.2056 -100.39626 8.54162 -2.15958 108.36792 -8.41728 -9.2042 -101.36847 -10.15542 -1.67136 -1.60554 111.53212 5.90105 0.5674 -102.60551 -12.70754 2.01721 1.9051
-0.33018 -0.33487 0.20233 26.79943 -20.80435 -6.14838 40.84087 1.41888 -3.94526 5.26273 -2.28349 -0.83065 38.57422 0.44476 8.97082 129.20304 100.26393 11.15997 1.07908 46.26501 1.96578 -7.82871 130.20177 -101.04731 8.90113 -2.18089 108.35392 -8.34719 -9.22821 -101.46156 -10.12869 -1.68184 -1.61173 111.55081 6.00119 0.38048 -102.69851 -12.67665 1.96436 1.87222
-0.32953 -0.33544 0.20213 26.78631 -20.76635 -6.27175 40.999 1.33452 -4.10423 5.09552 -1.8413 -0.83065 37.72238 0.69388 7.87744 129.42813 101.16219 11.63719 1.19154 45.77059 1.67814 -7.79597 130.20175 -101.81171 9.31401 -2.21014 108.33658 -8.26998 -9.25602 -101.57413 -10.09738 -1.69466 -1.61932 111.56669 6.11945 0.17287 -102.80801 -12.63982 1.90364 1.83424
-0.32914 -0.33586 0.20194 26.77374 -20.73017 -6.38051 41.10576 1.26561 -4.25591 4.94604 -1.46921 -0.83065 37.00522 0.74955 6.94362 129.62148 101.73193 11.96552 1.25806 45.34673 1.50675 -7.74647 130.21163 -102.43071 9.62879 -2.24336 108.3089 -8.20643 -9.27912 -101.64652 -10.07525 -1.70481 -1.62542 111.56714 6.21421 0.01429 -102.88132 -12.6121 1.85631 1.80495
-0.32949 -0.33585 0.20176 26.7602 -20.71678 -6.45223 41.09661 1.23915 -4.38431 4.84302 -1.27884 -0.83065 36.67938 0.2376 6.47771 129.71869 101.17148 11.83197 1.16565 45.14543 1.66761 -7.65604 130.23092 -102.55813 9.65477 -2.26957 108.27205 -8.18197 -9.28622 -101.60419 -10.07919 -1.70526 -1.62599 111.55136 6.22517 -0.0112 -102.85508 -12.61553 1.85091 1.80304
-0.3301 -0.3357 0.20159 26.74698 -20.70607 -6.50893 41.0377 1.22853 -4.50393 4.75744 -1.1591 -0.83065 36.493 -0.46431 6.17943 129.78264 100.2758 11.54903 1.02651 45.01941 1.94398 -7.55055 130.25731 -102.5289 9.58057 -2.2974 108.22626 -8.17149 -9.28818 -101.52183 -10.09227 -1.7028 -1.62491 111.5215 6.21156 0.01131 -102.79278 -12.62813 1.85902 1.80987
-0.33058 -0.33563 0.20142 26.73384 -20.6909 -6.57116 40.99797 1.2114 -4.62569 4.664 -1.00988 -0.83065 36.24398 -1.06004 5.80909 129.86238 99.59247 11.35189 0.9179 44.85879 2.16058 -7.45398 130.27995 -102.57516 9.55507 -2.3242 108.18234 -8.15436 -9.29234 -101.45973 -10.10089 -1.70182 -1.62466 111.49344 6.21288 0.00948 -102.74756 -12.6345 1.85954 1.81167
-0.33111 -0.3355 0.20123 26.71996 -20.68734 -6.63889 40.96918 1.19139 -4.75605 4.57121 -0.85007 -0.83066 35.98858 -1.73864 5.4151 129.94112 98.68451 11.08526 0.77423 44.69618 2.40798 -7.34714 130.30761 -102.61672 9.51871 -2.35502 108.14531 -8.1379 -9.29732 -101.38887 -10.11088 -1.70048 -1.62426 111.48137 6.20066 0.01895 -102.69892 -12.64874 1.8657 1.81759
